<svg height="512" viewBox="0 0 256 256" width="512" xmlns="http://www.w3.org/2000/svg"><path d="m128 240.025c-31.318 0-55.849-51.617-55.849-117.511s24.531-117.514 55.849-117.514 55.849 51.617 55.849 117.511-24.531 117.514-55.849 117.514zm0-226.741c-25.514 0-47.069 50.021-47.069 109.23s21.555 109.229 47.069 109.229 47.069-50.021 47.069-109.23-21.555-109.229-47.069-109.229z" fill="#f8af23"/><path d="m197.308 213.882c-9.785 0-21.179-2.186-33.779-6.571-25.465-8.862-53.3-25.749-78.389-47.549s-44.516-45.994-54.713-68.126c-10.716-23.258-10.02-41.8 1.962-52.215s33.318-11.019 60.082-1.7c25.465 8.862 53.3 25.749 78.389 47.549 25.085 21.8 44.516 45.994 54.714 68.127 10.716 23.258 10.02 41.8-1.962 52.215-6.342 5.506-15.305 8.269-26.304 8.27zm-138.553-174.428c-8.428 0-15.161 1.94-19.629 5.822-8.983 7.807-8.93 23.582.147 43.281 9.729 21.115 28.412 44.323 52.6 65.349s50.9 37.261 75.195 45.717c22.667 7.888 40.816 7.935 49.8.127s8.93-23.582-.147-43.281c-9.729-21.115-28.412-44.323-52.6-65.349-24.191-21.02-50.897-37.261-75.193-45.72-11.396-3.962-21.652-5.946-30.173-5.946z" fill="#63bce7"/><path d="m58.692 213.881c-11 0-19.961-2.764-26.3-8.275-11.982-10.413-12.679-28.957-1.962-52.215 10.2-22.132 29.628-46.326 54.714-68.127s52.923-38.686 78.389-47.549c26.764-9.312 48.1-8.708 60.082 1.7s12.679 28.957 1.962 52.215c-10.2 22.132-29.628 46.326-54.714 68.127-25.084 21.8-52.923 38.686-78.389 47.549-12.602 4.388-23.998 6.575-33.782 6.575zm138.553-174.427c-8.523 0-18.776 1.983-30.173 5.95-24.3 8.455-51 24.691-75.195 45.717s-42.877 44.233-52.604 65.348c-9.076 19.7-9.13 35.474-.147 43.281s27.135 7.761 49.8-.127c24.3-8.455 51-24.691 75.195-45.717 24.193-21.025 42.876-44.233 52.6-65.349 9.076-19.7 9.13-35.474.147-43.281-4.461-3.882-11.196-5.822-19.623-5.822z" fill="#f46275"/><path d="m95.687 125.264h13.556v21h-13.556z" fill="#9e9e9e"/><path d="m95.687 125.263h9.5v21h-9.5z" fill="#707070"/><path d="m121.222 112.014h13.555v34.25h-13.555z" fill="#9e9e9e"/><path d="m146.757 98.764h13.555v47.5h-13.555z" fill="#9e9e9e"/><path d="m150.813 98.763h9.5v47.5h-9.5z" fill="#cecece"/><g fill="#3f3679"><path d="m218.09 89.185c9.375-20.348 9.291-36.765-.231-45.042-4.727-4.107-11.661-6.189-20.613-6.189-8.847 0-19.164 2.03-30.666 6.033-24.474 8.517-51.353 24.854-75.686 46-24.35 21.162-43.167 44.549-52.983 65.854-9.375 20.348-9.291 36.765.232 45.042 4.731 4.112 11.814 6.167 20.643 6.167 8.71 0 19.12-2 30.636-6.011 24.474-8.517 51.353-24.854 75.686-46 24.348-21.163 43.165-44.549 52.982-65.854zm-42.24 51.841c.469-6.116.719-12.322.719-18.512s-.251-12.4-.719-18.511q3.193 3.14 6.213 6.326c.189 4 .286 8.1.286 12.185s-.1 8.176-.285 12.175c-2.017 2.122-4.078 4.237-6.214 6.337zm-39.506-79.786a287.87 287.87 0 0 1 33.531 25.16 270.941 270.941 0 0 1 28.725 28.88c-1.225 1.623-2.479 3.247-3.784 4.871a262.862 262.862 0 0 0 -29.712-30.162 280.531 280.531 0 0 0 -34.258-25.535q2.754-1.66 5.498-3.214zm24.621-11.94a171.5 171.5 0 0 1 9.2 33.4 290.842 290.842 0 0 0 -30.865-23.118 196.462 196.462 0 0 1 21.665-10.282zm31.915 73.2q-3.662 4.43-7.7 8.839c.1-2.929.166-5.879.166-8.833s-.067-5.906-.166-8.835q4.02 4.393 7.7 8.837zm23.009-76.1c8.443 7.338 8.252 22.472-.524 41.521a147.569 147.569 0 0 1 -14.929 24.884c-5.094-5.96-10.616-11.846-16.534-17.6l-.015-.142c-2-18.341-6.086-35.5-11.829-49.723 9.313-2.878 17.948-4.4 25.187-4.4 8.092.014 14.539 1.9 18.645 5.468zm-48.324.412c.55-.191 1.088-.358 1.634-.54 5.323 13.128 9.211 28.835 11.307 45.693q-3.308-3.112-6.767-6.162a175.4 175.4 0 0 0 -9.98-37.6c1.274-.472 2.541-.944 3.806-1.383zm-87.415 57.188c-.468 6.117-.72 12.324-.72 18.513s.251 12.4.719 18.512q-3.194-3.14-6.212-6.327c-.189-4.009-.287-8.106-.287-12.186s.1-8.171.287-12.177c2.017-2.12 4.078-4.235 6.213-6.335zm39.5 79.788a287.926 287.926 0 0 1 -33.525-25.158 270.906 270.906 0 0 1 -28.725-28.883c1.225-1.623 2.479-3.247 3.784-4.872a262.887 262.887 0 0 0 29.711 30.164 280.6 280.6 0 0 0 34.256 25.535q-2.751 1.66-5.499 3.214zm-24.612 11.932a171.447 171.447 0 0 1 -9.207-33.4 291.006 291.006 0 0 0 30.87 23.121 196.455 196.455 0 0 1 -21.663 10.279zm-31.918-73.2q3.662-4.43 7.7-8.839c-.1 2.932-.166 5.883-.166 8.835s.067 5.9.166 8.835q-4.02-4.388-7.7-8.833zm-23.01 76.1c-8.443-7.338-8.252-22.472.524-41.521a147.565 147.565 0 0 1 14.929-24.883c5.1 5.962 10.619 11.849 16.537 17.6 1.995 18.4 6.083 35.6 11.841 49.863-20.022 6.21-35.854 5.872-43.831-1.061zm48.324-.412c-.552.192-1.088.358-1.635.541-5.323-13.125-9.2-28.826-11.3-45.688q3.306 3.11 6.763 6.158a177.944 177.944 0 0 0 9.984 37.6c-1.276.475-2.546.948-3.811 1.388zm39.554-19.383a276.873 276.873 0 0 1 -35.126-26.049q-4.885-4.245-9.453-8.606v-.01c-.649-7.112-.979-14.395-.979-21.646s.332-14.54.982-21.661q4.57-4.347 9.45-8.6a277.363 277.363 0 0 1 35.146-26.053 276.667 276.667 0 0 1 35.13 26.049q4.884 4.244 9.452 8.6c.65 7.118.98 14.4.98 21.656s-.333 14.541-.983 21.66q-4.57 4.347-9.449 8.6a277.349 277.349 0 0 1 -35.15 26.059z"/><path d="m109.243 123.764h-13.556a1.5 1.5 0 0 0 -1.5 1.5v21a1.5 1.5 0 0 0 1.5 1.5h13.556a1.5 1.5 0 0 0 1.5-1.5v-21a1.5 1.5 0 0 0 -1.5-1.5zm-1.5 21h-10.556v-18h10.556z"/><path d="m134.777 110.514h-13.554a1.5 1.5 0 0 0 -1.5 1.5v34.25a1.5 1.5 0 0 0 1.5 1.5h13.555a1.5 1.5 0 0 0 1.5-1.5v-34.25a1.5 1.5 0 0 0 -1.501-1.5zm-1.5 34.25h-10.554v-31.25h10.555z"/><path d="m160.313 97.264h-13.556a1.5 1.5 0 0 0 -1.5 1.5v47.5a1.5 1.5 0 0 0 1.5 1.5h13.556a1.5 1.5 0 0 0 1.5-1.5v-47.5a1.5 1.5 0 0 0 -1.5-1.5zm-1.5 47.5h-10.556v-44.5h10.556z"/><path d="m27.323 249.5h-18a1.5 1.5 0 0 0 0 3h18a1.5 1.5 0 0 0 0-3z"/><path d="m246.68 249.5h-18a1.5 1.5 0 1 0 0 3h18a1.5 1.5 0 0 0 0-3z"/><path d="m218.479 249.5h-180.958a1.5 1.5 0 1 0 0 3h180.958a1.5 1.5 0 1 0 0-3z"/><path d="m9.32 241.524h237.36a1.5 1.5 0 0 0 0-3h-105.549c9.817-4.567 18.817-14.262 26.147-28.4 11.022 3.482 21.11 5.253 30.03 5.253 11.509 0 20.689-2.908 27.287-8.643 12.529-10.889 13.36-30.058 2.341-53.976a163.178 163.178 0 0 0 -18.647-30.247 163.472 163.472 0 0 0 18.647-30.254c11.02-23.917 10.188-43.086-2.341-53.975-11.754-10.215-32-11.378-57.318-3.391-10.501-20.244-24.428-31.391-39.277-31.391s-28.774 11.147-39.277 31.4c-25.312-7.988-45.562-6.826-57.318 3.391-12.529 10.889-13.36 30.058-2.341 53.975a163.2 163.2 0 0 0 18.646 30.245 163.436 163.436 0 0 0 -18.646 30.252c-11.02 23.918-10.188 43.087 2.341 53.976 6.6 5.735 15.779 8.643 27.287 8.643 8.919 0 19.007-1.772 30.03-5.253 7.331 14.135 16.326 23.829 26.143 28.4h-105.545a1.5 1.5 0 0 0 0 3zm214.891-87.5c10.412 22.6 9.85 40.519-1.585 50.455-6.035 5.247-14.554 7.907-25.318 7.907-9.717 0-20.916-2.183-33.285-6.487a201.116 201.116 0 0 1 -33.046-15.274q2.725-1.626 5.447-3.339a192.074 192.074 0 0 0 30.156 13.758c11.517 4.008 21.924 6.011 30.635 6.011 8.827 0 15.912-2.057 20.645-6.167 9.522-8.277 9.606-24.694.231-45.042a151.349 151.349 0 0 0 -15.666-25.992q2.032-2.441 3.95-4.886a159.271 159.271 0 0 1 17.836 29.052zm-96.211 38.356a214.776 214.776 0 0 0 28.18 13.777c-8.171 15.533-18.141 24.086-28.179 24.086s-20.012-8.555-28.182-24.09a215.2 215.2 0 0 0 28.181-13.773zm72.433-60.167a147.5 147.5 0 0 1 14.932 24.887c8.776 19.049 8.968 34.183.525 41.521-7.982 6.932-23.811 7.271-43.833 1.061 5.708-14.14 9.784-31.179 11.794-49.4a1.482 1.482 0 0 0 -.02-.423c5.969-5.795 11.521-11.701 16.601-17.647zm-31.233 66.534c-.546-.183-1.081-.349-1.633-.54q-1.9-.66-3.814-1.386a177.833 177.833 0 0 0 9.975-37.5c.006-.035 0-.07.006-.1q3.456-3.055 6.772-6.163c-2.098 16.856-5.985 32.566-11.306 45.689zm-8.242-3.018a196.592 196.592 0 0 1 -21.658-10.29 291.291 291.291 0 0 0 30.866-23.117 171.346 171.346 0 0 1 -9.21 33.408zm-32.958-189.229c13.57 0 26.457 10.41 36.387 29.34-.45.152-.9.3-1.351.457-1.339.466-2.689.967-4.04 1.477-8.744-16.76-19.727-25.992-31-25.992s-22.247 9.23-30.992 25.986q-2.027-.768-4.04-1.468c-.453-.158-.9-.305-1.351-.457 9.93-18.931 22.816-29.343 36.387-29.343zm0 46.144a214.7 214.7 0 0 0 -28.18-13.774c8.171-15.532 18.144-24.086 28.18-24.086s20.011 8.556 28.182 24.09a215.2 215.2 0 0 0 -28.182 13.772zm-96.211 38.364c-10.412-22.6-9.85-40.519 1.585-50.456 11.558-10.046 32.37-10.549 58.6-1.42a201.1 201.1 0 0 1 33.045 15.273q-2.725 1.626-5.447 3.338a192.088 192.088 0 0 0 -30.151-13.756c-11.5-4-21.821-6.033-30.666-6.033-8.95 0-15.886 2.083-20.613 6.189-9.522 8.277-9.606 24.693-.231 45.041a151.29 151.29 0 0 0 15.664 25.993q-2.032 2.441-3.95 4.886a159.318 159.318 0 0 1 -17.836-29.055zm23.777 21.807a147.474 147.474 0 0 1 -14.931-24.885c-8.776-19.049-8.968-34.183-.525-41.521 4.107-3.568 10.555-5.454 18.646-5.454 7.237 0 15.873 1.517 25.187 4.4-5.762 14.268-9.854 31.469-11.843 49.879-5.942 5.776-11.473 11.659-16.533 17.581zm31.234-66.534c.545.182 1.084.348 1.633.539q1.9.66 3.814 1.386a177.894 177.894 0 0 0 -9.99 37.609q-3.452 3.052-6.763 6.155c2.099-16.864 5.982-32.56 11.306-45.689zm8.243 3.019a196.682 196.682 0 0 1 21.657 10.288 291.318 291.318 0 0 0 -30.868 23.118 171.387 171.387 0 0 1 9.211-33.406zm-61.669 155.174c-11.435-9.937-12-27.855-1.585-50.456 10.111-21.941 29.411-45.957 54.336-67.618s52.608-38.463 77.9-47.264c12.461-4.335 23.694-6.5 33.3-6.5 10.616 0 19.238 2.644 25.306 7.917 11.435 9.937 12 27.855 1.585 50.456-10.116 21.941-29.416 45.956-54.341 67.62s-52.608 38.463-77.9 47.265c-12.371 4.3-23.57 6.487-33.285 6.487-10.761 0-19.28-2.66-25.316-7.907zm58.234 4.7c.454-.153.9-.289 1.356-.448 1.34-.466 2.689-.967 4.041-1.477 8.745 16.76 19.724 25.993 31 25.993s22.245-9.23 30.99-25.987c1.355.511 2.7 1 4.046 1.471.457.159.9.294 1.355.448-9.93 18.934-22.822 29.349-36.392 29.349s-26.465-10.411-36.396-29.348z"/></g></svg>