<?xml version="1.0" encoding="iso-8859-1"?>
<!-- Generator: Adobe Illustrator 16.0.0, SVG Export Plug-In . SVG Version: 6.00 Build 0)  -->
<!DOCTYPE svg PUBLIC "-//W3C//DTD SVG 1.1//EN" "http://www.w3.org/Graphics/SVG/1.1/DTD/svg11.dtd">
<svg version="1.1" id="Capa_1" xmlns="http://www.w3.org/2000/svg" xmlns:xlink="http://www.w3.org/1999/xlink" x="0px" y="0px"
	 width="351.421px" height="351.422px" viewBox="0 0 351.421 351.422" style="enable-background:new 0 0 351.421 351.422;"
	 xml:space="preserve">
<g>
	<g>
		<path d="M179.367,103.498l-9.25-5.039c-2.662-1.444-4.284-4.258-4.21-7.282l0.275-10.53l-10.325,2.09
			c-2.963,0.62-6.016-0.509-7.909-2.877l-6.564-8.231l-6.562,8.231c-1.892,2.368-4.935,3.491-7.913,2.877l-10.315-2.09l0.268,10.53
			c0.081,3.024-1.546,5.843-4.203,7.282l-9.257,5.039l6.971,7.895c2.005,2.268,2.575,5.47,1.457,8.289l-3.848,9.801l10.417,1.564
			c3,0.451,5.488,2.54,6.446,5.407l3.354,9.989l8.981-5.496c1.289-0.792,2.746-1.187,4.208-1.187c1.457,0,2.913,0.39,4.209,1.187
			l8.981,5.496l3.355-9.989c0.963-2.867,3.452-4.956,6.446-5.407l10.418-1.564l-3.851-9.801c-1.104-2.819-0.549-6.021,1.457-8.289
			L179.367,103.498z M141.384,135.062c-12.969,0-23.518-10.551-23.518-23.518c0-12.965,10.549-23.517,23.518-23.517
			c12.971,0,23.517,10.551,23.517,23.517C164.901,124.511,154.35,135.062,141.384,135.062z"/>
		<circle cx="141.384" cy="111.54" r="7.391"/>
		<ellipse cx="242.584" cy="129.319" rx="4.347" ry="4.341"/>
		<path d="M318.964,85.014l-26.878-52.41c-0.782-1.554-2.078-2.804-3.653-3.575L241.399,6.185c-0.945-0.457-1.976-0.73-3.029-0.788
			l-86.004-5.375c-1.617-0.121-3.241,0.289-4.632,1.123l-69.88,41.66c-1.735,1.029-3.021,2.683-3.597,4.615l-20.829,69.88
			c-0.924,3.107,0.107,6.467,2.601,8.535l8.202,6.761l-0.893,12.458l-30.326,43.88c-1.296,1.878-1.737,4.199-1.22,6.409
			c0.514,2.215,1.94,4.115,3.929,5.223l13.998,7.774v16.756c0,3.267,1.985,6.217,5.021,7.466l6.895,2.812l-4.175,4.163
			c-1.662,1.675-2.518,3.958-2.339,6.305c0.174,2.351,1.359,4.488,3.247,5.9l14.203,10.461v32.101c0,4.451,3.606,8.063,8.062,8.063
			h50.846l6.36,42.189c0.338,2.221,1.58,4.204,3.438,5.464c1.349,0.93,2.937,1.402,4.538,1.402c0.601,0,1.22-0.073,1.816-0.21
			l127.663-29.564c4.34-1.008,7.043-5.312,6.046-9.659l-12.356-53.869l7.266-32.783l41.796-51.622
			c1.165-1.438,1.795-3.229,1.795-5.072V88.694C319.856,87.414,319.551,86.154,318.964,85.014z M192.978,139.986
			c-1.234,2.126-3.36,3.576-5.784,3.937l-15.545,2.342l-5.004,14.903c-0.785,2.331-2.575,4.168-4.887,5.013
			c-0.897,0.326-1.827,0.488-2.756,0.488c-1.467,0-2.929-0.398-4.21-1.187l-13.412-8.199l-13.41,8.199
			c-2.092,1.281-4.661,1.528-6.969,0.698c-2.304-0.84-4.104-2.683-4.884-5.013l-5.005-14.903l-15.552-2.342
			c-2.431-0.361-4.559-1.815-5.782-3.937c-1.226-2.131-1.42-4.698-0.522-6.981l5.75-14.631l-10.417-11.779
			c-1.623-1.848-2.323-4.325-1.898-6.74c0.425-2.414,1.924-4.515,4.086-5.685l13.809-7.506L100.2,70.941
			c-0.066-2.446,1-4.804,2.874-6.383c1.882-1.576,4.37-2.221,6.785-1.722l15.404,3.118l9.796-12.295
			c3.052-3.842,9.546-3.842,12.617,0l9.793,12.295l15.401-3.118c2.407-0.504,4.905,0.146,6.785,1.722
			c1.891,1.579,2.94,3.915,2.878,6.383l-0.4,15.722l13.806,7.506c2.158,1.17,3.664,3.266,4.085,5.685
			c0.431,2.415-0.263,4.893-1.896,6.74l-10.414,11.779l5.742,14.631C194.401,135.283,194.201,137.855,192.978,139.986z
			 M289.336,126.401l-7.706,8.725l4.257,10.834c0.898,2.289,0.704,4.856-0.529,6.987c-1.229,2.127-3.36,3.575-5.786,3.937
			l-11.518,1.727l-3.7,11.04c-0.782,2.331-2.571,4.168-4.882,5.013c-0.896,0.326-1.837,0.488-2.761,0.488
			c-1.465,0-2.93-0.398-4.205-1.191l-9.938-6.074l-9.941,6.074c-2.106,1.286-4.651,1.538-6.968,0.703
			c-2.319-0.84-4.114-2.682-4.886-5.013l-3.702-11.04l-11.522-1.727c-2.418-0.362-4.556-1.815-5.778-3.937
			c-1.229-2.131-1.423-4.698-0.524-6.987l4.256-10.834l-7.716-8.725c-1.628-1.842-2.331-4.321-1.9-6.74
			c0.426-2.415,1.927-4.509,4.083-5.68l10.227-5.564l-0.299-11.638c-0.062-2.452,1.002-4.809,2.877-6.389
			c1.883-1.575,4.368-2.215,6.786-1.716l11.413,2.31l7.254-9.102c3.056-3.843,9.554-3.843,12.61,0l7.269,9.102l11.413-2.31
			c2.399-0.504,4.903,0.136,6.783,1.716c1.889,1.58,2.95,3.927,2.876,6.389l-0.31,11.638l10.227,5.564
			c2.157,1.171,3.664,3.26,4.083,5.68C291.656,122.08,290.964,124.564,289.336,126.401z"/>
		<path d="M260.674,112.936l0.163-6.452l-6.336,1.281c-2.961,0.609-6.017-0.509-7.905-2.877l-4.022-5.04l-4.031,5.04
			c-1.89,2.368-4.934,3.48-7.91,2.877l-6.326-1.281l0.151,6.452c0.091,3.018-1.543,5.843-4.194,7.275l-5.679,3.086l4.273,4.835
			c2.005,2.267,2.577,5.469,1.46,8.288l-2.363,6.005l6.389,0.961c2.997,0.452,5.484,2.541,6.451,5.412l2.048,6.116l5.496-3.365
			c1.29-0.788,2.76-1.187,4.209-1.187c1.454,0,2.919,0.394,4.205,1.187l5.502,3.365l2.052-6.116c0.961-2.871,3.465-4.96,6.44-5.412
			l6.389-0.961l-2.355-6.005c-1.104-2.819-0.546-6.021,1.459-8.288l4.277-4.835l-5.674-3.086
			C262.222,118.779,260.601,115.964,260.674,112.936z M242.584,149.787c-11.286,0-20.467-9.181-20.467-20.467
			s9.181-20.468,20.467-20.468c11.291,0,20.474,9.182,20.474,20.468C263.052,140.606,253.871,149.787,242.584,149.787z"/>
	</g>
</g>
<g>
</g>
<g>
</g>
<g>
</g>
<g>
</g>
<g>
</g>
<g>
</g>
<g>
</g>
<g>
</g>
<g>
</g>
<g>
</g>
<g>
</g>
<g>
</g>
<g>
</g>
<g>
</g>
<g>
</g>
</svg>
